<?xml version="1.0" standalone="no"?>
<!DOCTYPE svg PUBLIC "-//W3C//DTD SVG 20010904//EN"
 "http://www.w3.org/TR/2001/REC-SVG-20010904/DTD/svg10.dtd">
<svg version="1.0" xmlns="http://www.w3.org/2000/svg"
 width="276.000000pt" height="276.000000pt" viewBox="0 0 276.000000 276.000000"
 preserveAspectRatio="xMidYMid meet">
<metadata>
Created by potrace 1.11, written by Peter Selinger 2001-2013
</metadata>
<g transform="translate(0.000000,276.000000) scale(0.100000,-0.100000)"
fill="#000000" stroke="none">
<path d="M790 1791 l-55 -39 -38 -397 c-21 -219 -37 -399 -35 -401 2 -1 44 -6
94 -10 l90 -7 32 339 c18 186 34 340 35 341 2 1 57 -13 122 -31 l120 -33 6
-109 c4 -60 7 -198 8 -306 l1 -198 59 0 c32 0 73 3 90 6 l31 6 0 299 0 298 33
9 c145 40 208 54 214 48 6 -5 37 -497 42 -650 1 -18 7 -19 92 -13 50 3 92 7
93 9 1 2 -6 152 -15 333 -10 182 -18 359 -19 395 l-1 65 -60 44 -60 43 -202
-56 -202 -57 -203 56 c-112 30 -207 55 -210 54 -4 0 -32 -17 -62 -38z"/>
<path d="M2012 998 c-23 -62 -39 -114 -37 -116 6 -6 228 -83 230 -80 6 7 85
231 83 233 -5 4 -223 75 -229 75 -3 0 -25 -50 -47 -112z"/>
</g>
</svg>
